<?xml version="1.0" encoding="UTF-8"?>
<svg xmlns="http://www.w3.org/2000/svg" width="76" height="76" fill="none">
  <circle cx="38" cy="38" r="38" fill="#075FE4"></circle>
  <g clip-path="url(#a)">
    <path fill-rule="evenodd" clip-rule="evenodd" d="M37.655 12a26.66 26.66 0 0 0-8.424 51.954c1.333.244 1.82-.578 1.82-1.285 0-.633-.023-2.309-.036-4.534-7.416 1.612-8.98-3.573-8.98-3.573a7.062 7.062 0 0 0-2.96-3.9c-2.42-1.654.183-1.62.183-1.62a5.597 5.597 0 0 1 4.083 2.746 5.674 5.674 0 0 0 7.759 2.216 5.698 5.698 0 0 1 1.692-3.564c-5.92-.673-12.143-2.959-12.143-13.176a10.31 10.31 0 0 1 2.744-7.153 9.577 9.577 0 0 1 .262-7.055s2.237-.717 7.33 2.733a25.28 25.28 0 0 1 13.347 0c5.09-3.45 7.324-2.733 7.324-2.733a9.58 9.58 0 0 1 .267 7.055 10.287 10.287 0 0 1 2.739 7.153c0 10.242-6.233 12.495-12.172 13.155a6.363 6.363 0 0 1 1.81 4.937c0 3.564-.033 6.44-.033 7.313 0 .712.481 1.542 1.833 1.282A26.662 26.662 0 0 0 37.655 12Z" fill="#fff"></path>
  </g>
  <defs>
    <clipPath id="a">
      <path fill="#fff" transform="translate(11 12)" d="M0 0h53.316v52H0z"></path>
    </clipPath>
  </defs>
</svg>
